<svg width="80" height="80" viewBox="0 0 80 80" fill="none" xmlns="http://www.w3.org/2000/svg">
<rect width="80" height="80" rx="10" fill="#323238"/>
<path d="M40.0621 57.672C35.9661 57.672 32.7181 56.52 30.3181 54.216C27.9181 51.88 26.7181 48.52 26.7181 44.136V36.264C26.7181 31.88 27.9181 28.536 30.3181 26.232C32.7181 23.896 35.9661 22.728 40.0621 22.728C44.0941 22.728 47.1981 23.848 49.3741 26.088C51.5821 28.328 52.6861 31.384 52.6861 35.256V35.544H47.5501V35.112C47.5501 32.84 46.9261 30.984 45.6781 29.544C44.4621 28.104 42.5901 27.384 40.0621 27.384C37.5021 27.384 35.5021 28.168 34.0621 29.736C32.6221 31.272 31.9021 33.416 31.9021 36.168V44.232C31.9021 46.952 32.6221 49.096 34.0621 50.664C35.5021 52.232 37.5021 53.016 40.0621 53.016C42.5901 53.016 44.4621 52.296 45.6781 50.856C46.9261 49.384 47.5501 47.528 47.5501 45.288V44.472H52.6861V45.144C52.6861 49.016 51.5821 52.072 49.3741 54.312C47.1981 56.552 44.0941 57.672 40.0621 57.672Z" fill="#E07B67"/>
</svg>
